<svg width="15" height="15" viewBox="0 0 15 15" fill="none" xmlns="http://www.w3.org/2000/svg">
<path fill-rule="evenodd" clip-rule="evenodd" d="M1.75759 1.68187C1.20037 2.2391 0.758351 2.90062 0.456783 3.62867C0.155215 4.35672 8.3033e-09 5.13704 0 5.92507C-8.3033e-09 6.71311 0.155215 7.49342 0.456783 8.22147C0.758351 8.94952 1.20037 9.61104 1.75759 10.1683C2.31482 10.7255 2.97634 11.1675 3.70439 11.4691C4.43244 11.7706 5.21276 11.9259 6.00079 11.9259C6.78883 11.9259 7.56914 11.7706 8.29719 11.4691C9.02524 11.1675 9.68677 10.7255 10.244 10.1683C11.3369 9.03666 11.9417 7.52104 11.928 5.94786C11.9144 4.37468 11.2834 2.86981 10.1709 1.75736C9.05845 0.644911 7.55358 0.0138973 5.9804 0.000226816C4.40722 -0.0134437 2.8916 0.591323 1.75999 1.68427M9.39679 9.32107C8.95289 9.77494 8.42335 10.1362 7.83885 10.3841C7.25435 10.6319 6.62649 10.7613 5.99164 10.7648C5.35678 10.7683 4.72754 10.6458 4.14035 10.4044C3.55315 10.1631 3.01967 9.80762 2.57079 9.35866C2.12191 8.90971 1.76656 8.37616 1.5253 7.78892C1.28404 7.20169 1.16167 6.57242 1.16528 5.93757C1.16889 5.30271 1.2984 4.67488 1.54632 4.09042C1.79424 3.50597 2.15564 2.9765 2.60959 2.53267C3.51321 1.64921 4.72877 1.15775 5.99249 1.16493C7.2562 1.17211 8.4661 1.67736 9.35962 2.57104C10.2531 3.46471 10.7582 4.6747 10.7651 5.93842C10.7721 7.20213 10.2804 8.41761 9.39679 9.32107Z" fill="black"/>
<path d="M9.39421 11.0407C9.1692 10.8155 9.04286 10.5102 9.04297 10.1919C9.04308 9.87356 9.16964 9.56832 9.39481 9.34331C9.61998 9.1183 9.92531 8.99195 10.2436 8.99207C10.562 8.99218 10.8672 9.11874 11.0922 9.34391L14.4858 12.7387C14.6004 12.8494 14.6918 12.9818 14.7547 13.1282C14.8176 13.2746 14.8507 13.4321 14.8521 13.5914C14.8535 13.7508 14.8231 13.9088 14.7628 14.0563C14.7025 14.2037 14.6134 14.3377 14.5007 14.4504C14.388 14.5631 14.254 14.6522 14.1066 14.7125C13.9591 14.7728 13.8011 14.8032 13.6417 14.8018C13.4824 14.8004 13.3249 14.7673 13.1785 14.7044C13.0321 14.6415 12.8997 14.5501 12.789 14.4355L9.39421 11.0407Z" fill="black"/>
</svg>
