<svg width="130" height="130" viewBox="0 0 130 130" fill="none" xmlns="http://www.w3.org/2000/svg">
<path d="M100.209 59.5833C100.209 38.7292 82.3336 22.2083 60.9377 24.6458C44.6877 26.5417 31.6877 39.5417 30.0627 55.7917C28.7086 68.25 33.8544 79.3542 42.5211 86.3958C46.3127 89.6458 48.7502 94.25 48.7502 99.3958V100.208H81.2502V99.9375C81.2502 95.0625 83.4169 90.1875 87.2086 86.9375C95.0627 80.4375 100.209 70.6875 100.209 59.5833Z" fill="#FBC02D"/>
<path d="M82.875 54.7082L74.75 49.2915C73.9375 48.7498 72.5833 48.7498 71.7708 49.2915L65 53.6248L58.5 49.2915C57.6875 48.7498 56.3333 48.7498 55.5208 49.2915L47.3958 54.7082C46.8542 55.2498 46.3125 55.7915 46.3125 56.604C46.3125 57.4165 46.3125 58.229 46.8542 58.7707L57.1458 71.4998V100.208H62.5625V70.4165C62.5625 69.8748 62.2917 69.3332 62.0208 68.7915L53.0833 57.6873L57.1458 54.979L63.6458 59.3123C64.4583 59.854 65.8125 59.854 66.625 59.3123L73.125 54.979L77.1875 57.6873L68.25 68.7915C67.9792 69.3332 67.7083 69.8748 67.7083 70.4165V100.208H73.125V71.4998L83.4167 58.7707C83.9583 58.229 84.2292 57.4165 83.9583 56.604C83.6875 55.7915 83.4167 54.979 82.875 54.7082Z" fill="#FFF59D"/>
<path d="M65 127.292C69.4873 127.292 73.125 123.654 73.125 119.167C73.125 114.679 69.4873 111.042 65 111.042C60.5127 111.042 56.875 114.679 56.875 119.167C56.875 123.654 60.5127 127.292 65 127.292Z" fill="#5C6BC0"/>
<path d="M70.4167 121.875H59.5833C53.625 121.875 48.75 117 48.75 111.042V97.5H81.25V111.042C81.25 117 76.375 121.875 70.4167 121.875Z" fill="#9FA8DA"/>
<path d="M81.25 111.042L49.8333 115.375C50.6458 117.271 52.2708 119.167 54.1667 120.25L79.625 116.729C80.7083 115.104 81.25 113.208 81.25 111.042ZM48.75 104.813V110.229L81.25 105.625V100.208L48.75 104.813Z" fill="#5C6BC0"/>
</svg>
